<svg id="Layer_1" data-name="Layer 1" xmlns="http://www.w3.org/2000/svg" viewBox="0 0 354.43 54.52"><title>logo</title><path d="M73.09,252.58c3.76.53,7.6,1.09,11.44,1.61.9.12,2,.82,2.65-.12s-.31-1.78-.68-2.64c-1.28-3-2.58-6-4.23-9.74l18.35,6.81c-1.14-2.89-1.92-5-2.82-7.1a3.17,3.17,0,0,1,.27-3.54c3.39-4.48,6.7-9,10-13.54.71-.95,1.38-2.06,2.73-.72l15,14.91-.36.76c-3.65,0-7.31,0-11,0-.8,0-1.86-.37-2.34.48s.4,1.56.83,2.23c4,6.15,7.9,12.32,12,18.4,1.11,1.65,1.21,2.86,0,4.5-2.65,3.44-5.14,7-7.57,10.62a4.18,4.18,0,0,1-4,2c-6-.09-12.09-.05-18.14,0-1.41,0-2.67-.09-3.69-1.33-6-7.28-12.06-14.51-18.09-21.77A1.58,1.58,0,0,1,73.09,252.58Zm9.85,5.49-.42.87q5.73,6.75,11.44,13.51a2.46,2.46,0,0,0,2,.86h12.7c1.44,0,1.89-.61,1.32-2-1.13-2.74-2.2-5.5-3.32-8.24a2.25,2.25,0,0,0-1.82-1.57Zm21.46-18.74c-1.74-.22-3.15-.14-2.09,2.42q5.84,14.08,11.55,28.23c.7,1.72,1.42,1.53,2.35.2,1.39-2,2.75-4,4.24-6,1-1.24.71-2.24-.08-3.43q-6.45-9.83-12.8-19.73C106.82,239.89,106,239.06,104.4,239.33ZM90.52,249.1c1.25,5.76,1.74,6.26,6.52,7,1.35.22,2.71.45,4.07.6.86.09,2.1.88,2.49-.24a2.46,2.46,0,0,0-1.46-2.9C98.4,252,94.57,250.65,90.52,249.1Zm26.06-14.54c-2.14-1.93-3.86-3.47-5.55-5-.54-.5-1.14-.76-1.62-.11-1.24,1.68-3.58,3.27-3.23,5.18.27,1.47,3,.59,4.59.66A11.82,11.82,0,0,0,116.58,234.56Z" transform="translate(-72.97 -222.98)"/><path d="M156.48,237.38h6.74l13.72,34.69h-6.33L166.73,263H152.57l-3.88,9.08h-6Zm8.1,20-4.93-12.87-5,12.87Z" transform="translate(-72.97 -222.98)"/><path d="M184.41,237.38h6.78L210.55,264V237.38h6.16v34.69h-6.86l-19.29-26.71v26.71h-6.15Z" transform="translate(-72.97 -222.98)"/><path d="M228.91,237.38h7.47l11.53,19.92,11.69-19.92h7.11v34.69h-6.16V246.12l-9.86,16h-5.81l-9.81-16v25.95h-6.16Z" transform="translate(-72.97 -222.98)"/><path d="M279.65,237.38h6.15v34.69h-6.15Z" transform="translate(-72.97 -222.98)"/><path d="M318.15,237.14a28.21,28.21,0,0,1,10.37,1.92l.91.37-1.93,5.27-.93-.31A27.2,27.2,0,0,0,318,242.8a15.48,15.48,0,0,0-5.6,1,12.25,12.25,0,0,0-4.27,2.65,11.8,11.8,0,0,0-2.64,3.81,11,11,0,0,0-.94,4.49,10.9,10.9,0,0,0,1,4.6,11.93,11.93,0,0,0,2.83,3.83,13.39,13.39,0,0,0,4.58,2.62,18.24,18.24,0,0,0,6,1,23.75,23.75,0,0,0,8-1.42l.9-.31,2,4.88-.91.39a28.15,28.15,0,0,1-11.18,2.27,23.48,23.48,0,0,1-8.29-1.39,16.84,16.84,0,0,1-6.14-3.82,17,17,0,0,1-3.72-5.65,18.32,18.32,0,0,1-1.31-6.94,18.08,18.08,0,0,1,1.34-7,16.33,16.33,0,0,1,3.84-5.59,17.31,17.31,0,0,1,6.25-3.71A24.54,24.54,0,0,1,318.15,237.14Z" transform="translate(-72.97 -222.98)"/><path d="M338.9,237.38h6.15v34.69H338.9Z" transform="translate(-72.97 -222.98)"/><path d="M373.1,272.56q-13.82,0-15-9.67a24.1,24.1,0,0,1-.12-2.66V237.38h6.15v22a11.06,11.06,0,0,0,.36,3.06,5,5,0,0,0,1.43,2.26c1.57,1.51,4,2.27,7.17,2.27a12.05,12.05,0,0,0,5.72-1.22,5.57,5.57,0,0,0,2.9-3.44,10.85,10.85,0,0,0,.32-2.93v-22h6.1q0,7.62,0,12.46c0,3.23,0,5.3,0,6.2s0,1.64,0,2.19,0,1,0,1.37c0,.76,0,1.45-.06,2.06a15,15,0,0,1-.39,2.33,10.32,10.32,0,0,1-.9,2.5,11,11,0,0,1-1.71,2.29,9.74,9.74,0,0,1-2.69,2,16.07,16.07,0,0,1-3.94,1.3A26,26,0,0,1,373.1,272.56Z" transform="translate(-72.97 -222.98)"/><path d="M416,237.06a32.74,32.74,0,0,1,9.59,1.44l1,.3-2,5.66-.92-.27a30.73,30.73,0,0,0-8.06-1.22,14.65,14.65,0,0,0-6.14,1.17c-1.7.78-2.55,1.78-2.55,3a2.67,2.67,0,0,0,1.13,2.1,9.81,9.81,0,0,0,2.95,1.52q1.8.63,4,1.23c1.45.41,2.91.88,4.38,1.42a25.49,25.49,0,0,1,4,1.86,8.66,8.66,0,0,1,2.95,2.79,7.24,7.24,0,0,1,1.13,4,8.79,8.79,0,0,1-.5,2.89,9,9,0,0,1-1.69,2.82,11.32,11.32,0,0,1-2.92,2.43,16.18,16.18,0,0,1-4.45,1.68,26,26,0,0,1-6,.65,27.07,27.07,0,0,1-6-.62,42.4,42.4,0,0,1-5.69-1.8l-.9-.34,2.07-5.91,1,.37a31.93,31.93,0,0,0,10.18,2.2,13.81,13.81,0,0,0,6.09-1.15c1.55-.77,2.33-1.77,2.33-3a2.84,2.84,0,0,0-.71-1.88,5.73,5.73,0,0,0-1.9-1.4,20.85,20.85,0,0,0-2.75-1.06c-1-.33-2.12-.65-3.26-1s-2.28-.64-3.42-1a23.28,23.28,0,0,1-3.26-1.29,14.18,14.18,0,0,1-2.74-1.71,6.87,6.87,0,0,1-1.91-2.38,7.09,7.09,0,0,1-.71-3.19c0-2.93,1.44-5.38,4.31-7.37S411.17,237.06,416,237.06Z" transform="translate(-72.97 -222.98)"/></svg>